<?xml version="1.0" encoding="UTF-8" standalone="no"?>
<!-- Created with Inkscape (http://www.inkscape.org/) -->

<svg
   width="32"
   height="32"
   viewBox="0 0 32 32"
   version="1.1"
   id="svg5"
   inkscape:version="1.1.2 (0a00cf5339, 2022-02-04)"
   sodipodi:docname="chatzip-icon-2.svg"
   xmlns:inkscape="http://www.inkscape.org/namespaces/inkscape"
   xmlns:sodipodi="http://sodipodi.sourceforge.net/DTD/sodipodi-0.dtd"
   xmlns="http://www.w3.org/2000/svg"
   xmlns:svg="http://www.w3.org/2000/svg">
  <sodipodi:namedview
     id="namedview7"
     pagecolor="#ffffff"
     bordercolor="#666666"
     borderopacity="1.0"
     inkscape:pageshadow="2"
     inkscape:pageopacity="0.0"
     inkscape:pagecheckerboard="0"
     inkscape:document-units="px"
     showgrid="false"
     inkscape:zoom="6.484375"
     inkscape:cx="5.1662651"
     inkscape:cy="4.8578313"
     inkscape:window-width="960"
     inkscape:window-height="1011"
     inkscape:window-x="0"
     inkscape:window-y="32"
     inkscape:window-maximized="0"
     inkscape:current-layer="layer1" />
  <defs
     id="defs2" />
  <g
     inkscape:label="레이어 1"
     inkscape:groupmode="layer"
     id="layer1">
    <rect
       style="fill:#000000"
       id="rect53"
       width="26"
       height="1"
       x="3"
       y="0" />
    <rect
       style="fill:#000000"
       id="rect53-3"
       width="1"
       height="1"
       x="2"
       y="1" />
    <rect
       style="fill:#000000"
       id="rect53-6"
       width="1"
       height="1"
       x="1"
       y="2" />
    <rect
       style="fill:#000000"
       id="rect53-7"
       width="1"
       height="20"
       x="1.1920929e-07"
       y="3" />
    <rect
       style="fill:#000000"
       id="rect53-9"
       width="1"
       height="1"
       x="1.0000001"
       y="23" />
    <rect
       style="fill:#000000"
       id="rect53-1"
       width="1"
       height="1"
       x="2"
       y="24" />
    <rect
       style="fill:#000000"
       id="rect53-2"
       width="19"
       height="1"
       x="3"
       y="25" />
    <rect
       style="fill:#000000"
       id="rect53-79"
       width="1"
       height="1"
       x="27"
       y="31" />
    <rect
       style="fill:#000000"
       id="rect53-20"
       width="1"
       height="1"
       x="26"
       y="30" />
    <rect
       style="fill:#000000"
       id="rect53-23"
       width="1"
       height="1"
       x="25"
       y="29" />
    <rect
       style="fill:#000000"
       id="rect53-75"
       width="1"
       height="1"
       x="24"
       y="28" />
    <rect
       style="fill:#000000"
       id="rect53-92"
       width="1"
       height="1"
       x="23"
       y="27" />
    <rect
       style="fill:#000000"
       id="rect53-28"
       width="1"
       height="1"
       x="22"
       y="26" />
    <rect
       style="fill:#000000"
       id="rect53-626"
       width="1"
       height="6"
       x="28"
       y="25" />
    <rect
       style="fill:#000000"
       id="rect53-5"
       width="1"
       height="20"
       x="31"
       y="3" />
    <rect
       style="fill:#000000"
       id="rect53-93"
       width="1"
       height="1"
       x="30"
       y="23" />
    <rect
       style="fill:#000000"
       id="rect53-60"
       width="1"
       height="1"
       x="29"
       y="24" />
    <rect
       style="fill:#000000"
       id="rect53-35"
       width="1"
       height="1"
       x="30"
       y="2" />
    <rect
       style="fill:#000000"
       id="rect53-62"
       width="1"
       height="1"
       x="29"
       y="1" />
    <path
       style="fill:#ffffff;stroke-width:0.0771084"
       d="M 27.026506,30.496386 V 29.995181 H 26.525301 26.024096 V 29.493976 28.992771 H 25.522892 25.021687 V 28.491566 27.990361 H 24.520482 24.019277 V 27.489157 26.987952 H 23.518072 23.016867 V 26.486747 25.985542 H 22.515663 22.014458 V 25.484337 24.983133 H 12.53012 3.0457831 V 24.481928 23.980723 H 2.5445783 2.0433735 V 23.479518 22.978313 H 1.5421687 1.0409639 V 12.992771 3.0072289 H 1.5421687 2.0433735 V 2.5060241 2.0048193 H 2.5445783 3.0457831 V 1.5036145 1.0024096 H 16 28.954217 v 0.5012049 0.5012048 h 0.501205 0.501204 v 0.5012048 0.5012048 h 0.501205 0.501205 v 9.9855421 9.985542 h -0.501205 -0.501205 v 0.501205 0.501205 h -0.501204 -0.501205 v 0.501205 0.501205 h -0.501205 -0.501205 v 3.007228 3.007229 h -0.46265 -0.462651 z"
       id="path1017" />
    <rect
       style="fill:#f2f2f2"
       id="rect97-544-4-89"
       width="14"
       height="2"
       x="8"
       y="15" />
    <rect
       style="fill:#f2f2f2"
       id="rect97-544-4-28"
       width="1"
       height="1"
       x="8"
       y="14" />
    <rect
       style="fill:#f2f2f2"
       id="rect97-544-4-88"
       width="1"
       height="1"
       x="21"
       y="14" />
    <rect
       style="fill:#f2f2f2"
       id="rect97-03-7"
       width="1"
       height="1"
       x="24"
       y="12" />
    <rect
       style="fill:#e6e6e6;fill-opacity:1"
       id="rect97-03-7-42"
       width="1"
       height="1"
       x="23"
       y="12" />
    <rect
       style="fill:#f2f2f2"
       id="rect97-03-7-4"
       width="1"
       height="1"
       x="24"
       y="16" />
    <rect
       style="fill:#cccccc"
       id="rect97-03-7-3"
       width="1"
       height="1"
       x="22"
       y="12" />
    <rect
       style="fill:#cccccc"
       id="rect97-03-7-1"
       width="1"
       height="1"
       x="22"
       y="16" />
    <rect
       style="fill:#e6e6e6;fill-opacity:1"
       id="rect97-03-7-2"
       width="1"
       height="1"
       x="23"
       y="16" />
    <rect
       style="fill:#000000"
       id="rect97-62"
       width="13"
       height="1"
       x="8"
       y="23" />
    <rect
       style="fill:#000000"
       id="rect97-4"
       width="3"
       height="1"
       x="5.9999995"
       y="22" />
    <rect
       style="fill:#000000"
       id="rect97-18"
       width="1"
       height="1"
       x="5.9999995"
       y="21" />
    <rect
       style="fill:#000000"
       id="rect97-8"
       width="3"
       height="1"
       x="21"
       y="22" />
    <rect
       style="fill:#000000"
       id="rect97-64"
       width="1"
       height="1"
       x="23"
       y="21" />
    <rect
       style="fill:#000000"
       id="rect97-33"
       width="1"
       height="1"
       x="4.9999995"
       y="20" />
    <rect
       style="fill:#000000"
       id="rect97-38"
       width="1"
       height="1"
       x="5.9999995"
       y="19" />
    <rect
       style="fill:#000000"
       id="rect97-604"
       width="2"
       height="1"
       x="6.9999995"
       y="18" />
    <rect
       style="fill:#000000"
       id="rect97-88"
       width="1"
       height="1"
       x="24"
       y="20" />
    <rect
       style="fill:#000000"
       id="rect97-897"
       width="1"
       height="1"
       x="23"
       y="19" />
    <rect
       style="fill:#000000"
       id="rect97-03"
       width="1"
       height="1"
       x="7.9999995"
       y="17" />
    <rect
       style="fill:#f2f2f2"
       id="rect97-03-1"
       width="1"
       height="3"
       x="25"
       y="13" />
    <rect
       style="fill:#cccccc"
       id="rect97-03-3"
       width="3"
       height="1"
       x="7.999999"
       y="20" />
    <rect
       style="fill:#cccccc"
       id="rect97-03-3-5"
       width="3"
       height="1"
       x="19"
       y="20" />
    <rect
       style="fill:#cccccc"
       id="rect97-03-4"
       width="10"
       height="1"
       x="10"
       y="21" />
    <rect
       style="fill:#f2f2f2"
       id="rect97-03-4-6"
       width="10"
       height="1"
       x="10"
       y="9.999999" />
    <rect
       style="fill:#f2f2f2"
       id="rect97-03-9"
       width="12"
       height="1"
       x="9"
       y="22" />
    <rect
       style="fill:#000000"
       id="rect97-77"
       width="2"
       height="1"
       x="9"
       y="19" />
    <rect
       style="fill:#000000"
       id="rect97-81"
       width="8"
       height="1"
       x="11"
       y="20" />
    <rect
       style="fill:#000000"
       id="rect97-47"
       width="2"
       height="1"
       x="21"
       y="18" />
    <rect
       style="fill:#000000"
       id="rect97-24"
       width="4"
       height="1"
       x="21"
       y="17" />
    <rect
       style="fill:#000000"
       id="rect97-06"
       width="2"
       height="1"
       x="19"
       y="19" />
    <rect
       style="fill:#000000"
       id="rect97-90"
       width="1"
       height="6"
       x="7.0000005"
       y="10.999999" />
    <rect
       style="fill:#000000"
       id="rect97-640"
       width="1"
       height="1"
       x="25"
       y="16" />
    <rect
       style="fill:#000000"
       id="rect97-75"
       width="1"
       height="3"
       x="26"
       y="13" />
    <rect
       style="fill:#000000"
       id="rect97-698"
       width="1"
       height="1"
       x="25"
       y="12" />
    <rect
       style="fill:#000000"
       id="rect97-99"
       width="3"
       height="1"
       x="22"
       y="11" />
    <rect
       style="fill:#000000"
       id="rect97-32"
       width="3"
       height="1"
       x="22"
       y="13" />
    <rect
       style="fill:#000000"
       id="rect97-15"
       width="1"
       height="1"
       x="22"
       y="14" />
    <rect
       style="fill:#000000"
       id="rect97-991"
       width="3"
       height="1"
       x="22"
       y="15" />
    <rect
       style="fill:#000000"
       id="rect97-758"
       width="1"
       height="1"
       x="24"
       y="14" />
    <rect
       style="fill:#000000"
       id="rect97-70"
       width="1"
       height="1"
       x="21"
       y="10" />
    <rect
       style="fill:#000000"
       id="rect97-962"
       width="12"
       height="1"
       x="8.999999"
       y="9" />
    <rect
       style="fill:#000000"
       id="rect97-544"
       width="1"
       height="1"
       x="8"
       y="9.999999" />
    <rect
       style="fill:#c8b7b7"
       id="rect97-544-0"
       width="2"
       height="1"
       x="11"
       y="7" />
    <rect
       style="fill:#c8b7b7"
       id="rect97-544-0-0"
       width="2"
       height="1"
       x="17"
       y="7" />
    <rect
       style="fill:#c8b7b7"
       id="rect97-544-0-0-6"
       width="2"
       height="1"
       x="16"
       y="6" />
    <rect
       style="fill:#c8b7b7"
       id="rect97-544-0-0-7"
       width="2"
       height="2"
       x="17"
       y="3.9999998" />
    <rect
       style="fill:#c8b7b7"
       id="rect97-544-0-0-9"
       width="2"
       height="1"
       x="18"
       y="2.9999998" />
    <rect
       style="fill:#c8b7b7"
       id="rect97-544-0-0-0"
       width="2"
       height="1"
       x="17"
       y="1.9999998" />
    <rect
       style="fill:#c8b7b7"
       id="rect97-544-0-7"
       width="2"
       height="2"
       x="10"
       y="5" />
    <rect
       style="fill:#c8b7b7"
       id="rect97-544-0-6"
       width="2"
       height="1"
       x="11"
       y="4" />
    <rect
       style="fill:#c8b7b7"
       id="rect97-544-0-8"
       width="2"
       height="1"
       x="12"
       y="3.0000002" />
    <rect
       style="fill:#c8b7b7"
       id="rect97-544-0-9"
       width="2"
       height="1"
       x="11"
       y="2.0000002" />
    <rect
       style="fill:#f2f2f2"
       id="rect97-544-4"
       width="1"
       height="1"
       x="9"
       y="10.999999" />
    <rect
       style="fill:#a05a2c"
       id="rect97-544-4-6"
       width="10"
       height="1"
       x="10"
       y="10.999999" />
    <rect
       style="fill:#784421"
       id="rect97-544-4-6-3"
       width="10"
       height="1"
       x="10.000001"
       y="12" />
    <rect
       style="fill:#502d16"
       id="rect97-544-4-6-3-8"
       width="10"
       height="1"
       x="10.000001"
       y="13" />
    <rect
       style="fill:#a05a2c"
       id="rect97-544-4-83"
       width="1"
       height="1"
       x="9"
       y="11.999999" />
    <rect
       style="fill:#a05a2c"
       id="rect97-544-4-833"
       width="1"
       height="1"
       x="20"
       y="12" />
    <rect
       style="fill:#f2f2f2"
       id="rect97-544-4-2"
       width="8"
       height="1"
       x="11"
       y="19" />
    <rect
       style="fill:#f2f2f2"
       id="rect97-544-4-8"
       width="12"
       height="2"
       x="9"
       y="17" />
    <rect
       style="fill:#f2f2f2"
       id="rect97-544-4-1"
       width="1"
       height="1"
       x="20"
       y="11" />
    <rect
       style="fill:#f2f2f2"
       id="rect97-03-93"
       width="3"
       height="1"
       x="6.9999995"
       y="21" />
    <rect
       style="fill:#f2f2f2"
       id="rect97-03-93-5"
       width="3"
       height="1"
       x="20"
       y="21" />
    <rect
       style="fill:#f2f2f2"
       id="rect97-03-6"
       width="2"
       height="1"
       x="5.999999"
       y="20" />
    <rect
       style="fill:#f2f2f2"
       id="rect97-03-6-02"
       width="2"
       height="1"
       x="22"
       y="20" />
    <rect
       style="fill:#f2f2f2"
       id="rect97-03-6-9"
       width="2"
       height="1"
       x="21"
       y="19" />
    <rect
       style="fill:#f2f2f2"
       id="rect97-03-6-0"
       width="2"
       height="1"
       x="7.0000005"
       y="19" />
  </g>
</svg>
